<mxfile host="app.diagrams.net" modified="2023-04-03T00:46:29.840Z" agent="Mozilla/5.0 (Macintosh; Intel Mac OS X 10_15_7) AppleWebKit/605.1.15 (KHTML, like Gecko) Version/16.3 Safari/605.1.15" etag="1GpZLz93EubiblXPYyiv" version="21.1.2" type="github">
  <diagram id="8U7C2PKs2CJAFS90EC-3" name="envoy@istio-conf-eg-inbound.drawio.svg">
    <mxGraphModel dx="3905" dy="761" grid="1" gridSize="10" guides="1" tooltips="1" connect="1" arrows="1" fold="1" page="1" pageScale="1" pageWidth="850" pageHeight="1100" math="0" shadow="0">
      <root>
        <mxCell id="0" />
        <mxCell id="1" parent="0" />
        <mxCell id="2" value="&lt;b style=&quot;color: rgb(0 , 0 , 0)&quot;&gt;Listener&lt;/b&gt;&lt;br&gt;&lt;font color=&quot;#000000&quot;&gt;&lt;b&gt;(in dynamic_listeners)&lt;/b&gt;&lt;/font&gt;&lt;br&gt;&lt;br&gt;&lt;font color=&quot;#000000&quot;&gt;name:&amp;nbsp;virtualInbound&lt;/font&gt;&lt;br style=&quot;color: rgb(0 , 0 , 0)&quot;&gt;&lt;font color=&quot;#000000&quot;&gt;port: 15006&lt;br&gt;&lt;/font&gt;&quot;address&quot;: &quot;0.0.0.0&quot;&lt;br&gt;&lt;font color=&quot;#000000&quot;&gt;traffic_direction: INBOUND&lt;br&gt;&lt;/font&gt;" style="rounded=0;whiteSpace=wrap;html=1;fillColor=#f5f5f5;strokeColor=#666666;fontColor=#333333;labelPosition=center;verticalLabelPosition=top;align=center;verticalAlign=bottom;spacingBottom=-120;spacingTop=0;" parent="1" vertex="1">
          <mxGeometry x="-1775" y="1260" width="3539" height="2200" as="geometry" />
        </mxCell>
        <mxCell id="3" value="&lt;font color=&quot;#000000&quot;&gt;filter_chain(Network filters)&lt;/font&gt;&lt;br&gt;&lt;font color=&quot;#000000&quot;&gt;name: 0.0.0.0_8080&lt;br&gt;&lt;br&gt;&lt;/font&gt;" style="rounded=1;whiteSpace=wrap;html=1;fillColor=none;strokeColor=#666666;fontColor=#333333;labelPosition=center;verticalLabelPosition=top;align=center;verticalAlign=bottom;spacingBottom=-50;" parent="1" vertex="1">
          <mxGeometry x="-1730" y="2224" width="2030" height="746" as="geometry" />
        </mxCell>
        <mxCell id="4" value="&lt;font color=&quot;#000000&quot;&gt;kernel netfilter&lt;br&gt;&lt;/font&gt;" style="rounded=1;whiteSpace=wrap;html=1;fillColor=#f5f5f5;strokeColor=#666666;fontColor=#333333;labelPosition=center;verticalLabelPosition=top;align=center;verticalAlign=bottom;spacingBottom=-50;" parent="1" vertex="1">
          <mxGeometry x="-301.25" y="3608" width="595" height="234.5" as="geometry" />
        </mxCell>
        <mxCell id="5" value="&lt;font color=&quot;#000000&quot;&gt;filter_chains&lt;/font&gt;" style="rounded=0;whiteSpace=wrap;html=1;fillColor=none;strokeColor=#666666;fontColor=#333333;labelPosition=center;verticalLabelPosition=top;align=center;verticalAlign=bottom;spacingBottom=-30;" parent="1" vertex="1">
          <mxGeometry x="-1736" y="1410" width="3472" height="1600" as="geometry" />
        </mxCell>
        <mxCell id="6" value="&lt;font color=&quot;#000000&quot;&gt;filter_chain&lt;/font&gt;&lt;br&gt;&lt;font color=&quot;#000000&quot;&gt;name:&amp;nbsp;virtualInbound-catchall-http&lt;br&gt;&lt;br&gt;&lt;/font&gt;" style="rounded=1;whiteSpace=wrap;html=1;fillColor=none;strokeColor=#666666;fontColor=#333333;labelPosition=center;verticalLabelPosition=top;align=center;verticalAlign=bottom;spacingBottom=-50;" parent="1" vertex="1">
          <mxGeometry x="514" y="1451" width="595" height="470" as="geometry" />
        </mxCell>
        <mxCell id="7" value="&lt;font color=&quot;#000000&quot;&gt;filter_chain&lt;/font&gt;&lt;br&gt;&lt;font color=&quot;#000000&quot;&gt;name:&amp;nbsp;virtualInbound-blackhole&lt;br&gt;filter_chain_match.destination_port: 15006&lt;br&gt;&lt;/font&gt;" style="rounded=1;whiteSpace=wrap;html=1;fillColor=none;strokeColor=#666666;fontColor=#333333;labelPosition=center;verticalLabelPosition=top;align=center;verticalAlign=bottom;spacingBottom=-50;" parent="1" vertex="1">
          <mxGeometry x="170" y="1460" width="330" height="260" as="geometry" />
        </mxCell>
        <mxCell id="8" value="filter&lt;br&gt;&lt;br&gt;&quot;name&quot;: &quot;istio.metadata_exchange&quot;&lt;br&gt;" style="rounded=0;whiteSpace=wrap;html=1;fillColor=#ffe6cc;strokeColor=#d79b00;" parent="1" vertex="1">
          <mxGeometry x="200" y="1620" width="260" height="65" as="geometry" />
        </mxCell>
        <mxCell id="9" value="&quot;name&quot;: &quot;envoy.filters.network.tcp_proxy&quot;&lt;br&gt;&quot;cluster&quot;: &quot;BlackHoleCluster&quot;" style="rounded=0;whiteSpace=wrap;html=1;fillColor=#ffe6cc;strokeColor=#d79b00;" parent="1" vertex="1">
          <mxGeometry x="200" y="1540" width="260" height="65" as="geometry" />
        </mxCell>
        <mxCell id="10" value="&lt;font color=&quot;#000000&quot;&gt;listener_filters&lt;/font&gt;" style="rounded=1;whiteSpace=wrap;html=1;fillColor=none;strokeColor=#666666;fontColor=#333333;labelPosition=center;verticalLabelPosition=top;align=center;verticalAlign=bottom;spacingBottom=-30;" parent="1" vertex="1">
          <mxGeometry x="410" y="3030" width="510" height="380" as="geometry" />
        </mxCell>
        <mxCell id="11" value="filter&lt;br&gt;&lt;br&gt;&quot;name&quot;: &quot;envoy.filters.listener.original_dst&quot;" style="rounded=0;whiteSpace=wrap;html=1;fillColor=#ffe6cc;strokeColor=#d79b00;" parent="1" vertex="1">
          <mxGeometry x="540" y="3290" width="260" height="60" as="geometry" />
        </mxCell>
        <mxCell id="12" value="filter&lt;br&gt;&lt;br&gt;&quot;name&quot;: &quot;envoy.filters.listener.tls_inspector&quot;" style="rounded=0;whiteSpace=wrap;html=1;fillColor=#ffe6cc;strokeColor=#d79b00;" parent="1" vertex="1">
          <mxGeometry x="540" y="3200" width="260" height="60" as="geometry" />
        </mxCell>
        <mxCell id="13" value="filter&lt;br&gt;&lt;br&gt;&quot;name&quot;: &quot;envoy.filters.listener.http_inspector&quot;" style="rounded=0;whiteSpace=wrap;html=1;fillColor=#ffe6cc;strokeColor=#d79b00;" parent="1" vertex="1">
          <mxGeometry x="540" y="3110" width="260" height="60" as="geometry" />
        </mxCell>
        <mxCell id="14" value="&lt;div&gt;filter_chain_match:&lt;/div&gt;&lt;div&gt;&amp;nbsp; prefix_ranges:&lt;/div&gt;&lt;div&gt;&amp;nbsp; - address_prefix: 0.0.0.0&lt;/div&gt;&lt;div&gt;&amp;nbsp; &amp;nbsp; prefix_len: 0&lt;/div&gt;&lt;div&gt;&amp;nbsp; transport_protocol: &lt;b&gt;tls&lt;/b&gt;&lt;/div&gt;&lt;div&gt;&amp;nbsp; application_protocols:&lt;/div&gt;&lt;div&gt;&amp;nbsp; - istio-http/1.0&lt;/div&gt;&lt;div&gt;&amp;nbsp; - istio-http/1.1&lt;/div&gt;&lt;div&gt;&amp;nbsp; - istio-h2&lt;/div&gt;" style="shape=document;whiteSpace=wrap;html=1;boundedLbl=1;fontSize=12;fillColor=none;align=left;size=0.16666666666666666;" parent="1" vertex="1">
          <mxGeometry x="549" y="1511" width="180" height="160" as="geometry" />
        </mxCell>
        <mxCell id="15" value="filter&lt;br&gt;&lt;br&gt;&quot;name&quot;: &quot;istio.metadata_exchange&quot;&lt;br&gt;" style="rounded=0;whiteSpace=wrap;html=1;fillColor=#ffe6cc;strokeColor=#d79b00;" parent="1" vertex="1">
          <mxGeometry x="749" y="1621" width="230" height="65" as="geometry" />
        </mxCell>
        <mxCell id="16" value="filter&lt;br&gt;&lt;br&gt;name: envoy.filters.network.http_connection_manager" style="rounded=0;whiteSpace=wrap;html=1;fillColor=#ffe6cc;strokeColor=#d79b00;" parent="1" vertex="1">
          <mxGeometry x="749" y="1531" width="340" height="65" as="geometry" />
        </mxCell>
        <mxCell id="17" value="&lt;div&gt;transport_socket:&lt;/div&gt;&lt;div&gt;&amp;nbsp; name: envoy.transport_sockets.tls&lt;/div&gt;&lt;div&gt;&amp;nbsp; typed_config:&lt;/div&gt;&lt;div&gt;&lt;span&gt;&amp;nbsp; &amp;nbsp; common_tls_context:&lt;/span&gt;&lt;br&gt;&lt;/div&gt;&lt;div&gt;&amp;nbsp; &amp;nbsp; &amp;nbsp; tls_params:&lt;/div&gt;&lt;div&gt;&amp;nbsp; &amp;nbsp; &amp;nbsp; &amp;nbsp; tls_minimum_protocol_version: TLSv1_2&lt;/div&gt;&lt;div&gt;&amp;nbsp; &amp;nbsp; &amp;nbsp; &amp;nbsp; cipher_suites:&lt;/div&gt;&lt;div&gt;&lt;span&gt;&amp;nbsp; &amp;nbsp; &amp;nbsp; &amp;nbsp; - AES256-GCM-SHA384&lt;/span&gt;&lt;br&gt;&lt;/div&gt;&lt;div&gt;&lt;span&gt;&amp;nbsp; &amp;nbsp; &amp;nbsp; alpn_protocols:&lt;/span&gt;&lt;br&gt;&lt;/div&gt;&lt;div&gt;&amp;nbsp; &amp;nbsp; &amp;nbsp; - h2&lt;/div&gt;&lt;div&gt;&amp;nbsp; &amp;nbsp; &amp;nbsp; - http/1.1&lt;/div&gt;" style="shape=document;whiteSpace=wrap;html=1;boundedLbl=1;fontSize=12;fillColor=none;align=left;size=0.16666666666666666;" parent="1" vertex="1">
          <mxGeometry x="549" y="1701" width="390" height="200" as="geometry" />
        </mxCell>
        <mxCell id="18" value="&lt;font color=&quot;#000000&quot;&gt;filter_chain&lt;/font&gt;&lt;br&gt;&lt;font color=&quot;#000000&quot;&gt;name: virtualInbound-catchall-http&lt;br&gt;&lt;br&gt;&lt;/font&gt;" style="rounded=1;whiteSpace=wrap;html=1;fillColor=none;strokeColor=#666666;fontColor=#333333;labelPosition=center;verticalLabelPosition=top;align=center;verticalAlign=bottom;spacingBottom=-50;" parent="1" vertex="1">
          <mxGeometry x="-470" y="1460" width="595" height="470" as="geometry" />
        </mxCell>
        <mxCell id="19" value="&lt;div&gt;filter_chain_match:&lt;/div&gt;&lt;div&gt;&amp;nbsp; prefix_ranges:&lt;/div&gt;&lt;div&gt;&amp;nbsp; - address_prefix: 0.0.0.0&lt;/div&gt;&lt;div&gt;&amp;nbsp; &amp;nbsp; prefix_len: 0&lt;/div&gt;&lt;div&gt;&amp;nbsp; transport_protocol:&amp;nbsp;&lt;b&gt;raw_buffer&lt;/b&gt;&lt;/div&gt;&lt;div&gt;&amp;nbsp; application_protocols:&lt;/div&gt;&lt;div&gt;&amp;nbsp; - http/1.0&lt;/div&gt;&lt;div&gt;&amp;nbsp; - ttp/1.1&lt;/div&gt;&lt;div&gt;&amp;nbsp; - h2c&lt;/div&gt;" style="shape=document;whiteSpace=wrap;html=1;boundedLbl=1;fontSize=12;fillColor=none;align=left;size=0.16666666666666666;" parent="1" vertex="1">
          <mxGeometry x="-435" y="1520" width="180" height="160" as="geometry" />
        </mxCell>
        <mxCell id="20" value="filter&lt;br&gt;&lt;br&gt;&quot;name&quot;: &quot;istio.metadata_exchange&quot;&lt;br&gt;" style="rounded=0;whiteSpace=wrap;html=1;fillColor=#ffe6cc;strokeColor=#d79b00;" parent="1" vertex="1">
          <mxGeometry x="-235" y="1630" width="230" height="65" as="geometry" />
        </mxCell>
        <mxCell id="21" value="filter&lt;br&gt;&lt;br&gt;name: envoy.filters.network.http_connection_manager" style="rounded=0;whiteSpace=wrap;html=1;fillColor=#ffe6cc;strokeColor=#d79b00;" parent="1" vertex="1">
          <mxGeometry x="-235" y="1540" width="340" height="65" as="geometry" />
        </mxCell>
        <mxCell id="22" value="&lt;div&gt;transport_socket:&lt;/div&gt;&lt;div&gt;&amp;nbsp; name: envoy.transport_sockets.tls&lt;/div&gt;&lt;div&gt;&amp;nbsp; typed_config:&lt;/div&gt;&lt;div&gt;&lt;span&gt;&amp;nbsp; &amp;nbsp; common_tls_context:&lt;/span&gt;&lt;br&gt;&lt;/div&gt;&lt;div&gt;&amp;nbsp; &amp;nbsp; &amp;nbsp; tls_params:&lt;/div&gt;&lt;div&gt;&amp;nbsp; &amp;nbsp; &amp;nbsp; &amp;nbsp; tls_minimum_protocol_version: TLSv1_2&lt;/div&gt;&lt;div&gt;&amp;nbsp; &amp;nbsp; &amp;nbsp; &amp;nbsp; cipher_suites:&lt;/div&gt;&lt;div&gt;&lt;span&gt;&amp;nbsp; &amp;nbsp; &amp;nbsp; &amp;nbsp; - AES256-GCM-SHA384&lt;/span&gt;&lt;br&gt;&lt;/div&gt;&lt;div&gt;&lt;span&gt;&amp;nbsp; &amp;nbsp; &amp;nbsp; alpn_protocols:&lt;/span&gt;&lt;br&gt;&lt;/div&gt;&lt;div&gt;&amp;nbsp; &amp;nbsp; &amp;nbsp; - h2&lt;/div&gt;&lt;div&gt;&amp;nbsp; &amp;nbsp; &amp;nbsp; - http/1.1&lt;/div&gt;&lt;div&gt;&amp;nbsp;&amp;nbsp;require_client_certificate: true&lt;/div&gt;" style="shape=document;whiteSpace=wrap;html=1;boundedLbl=1;fontSize=12;fillColor=none;align=left;size=0.16666666666666666;" parent="1" vertex="1">
          <mxGeometry x="-435" y="1710" width="390" height="200" as="geometry" />
        </mxCell>
        <mxCell id="23" value="&lt;font color=&quot;#000000&quot;&gt;filter_chain&lt;/font&gt;&lt;br&gt;&lt;font color=&quot;#000000&quot;&gt;name: virtualInbound&lt;br&gt;&lt;br&gt;&lt;/font&gt;" style="rounded=1;whiteSpace=wrap;html=1;labelPosition=center;verticalLabelPosition=top;align=center;verticalAlign=bottom;spacingBottom=-50;fillColor=none;" parent="1" vertex="1">
          <mxGeometry x="-1117.5" y="1478" width="595" height="470" as="geometry" />
        </mxCell>
        <mxCell id="24" value="&lt;div&gt;filter_chain_match:&lt;/div&gt;&lt;div&gt;&amp;nbsp; prefix_ranges:&lt;/div&gt;&lt;div&gt;&amp;nbsp; - address_prefix: 0.0.0.0&lt;/div&gt;&lt;div&gt;&amp;nbsp; &amp;nbsp; prefix_len: 0&lt;/div&gt;&lt;div&gt;&amp;nbsp; transport_protocol:&amp;nbsp;raw_buffer&lt;/div&gt;&lt;div&gt;&amp;nbsp; application_protocols:&lt;/div&gt;&lt;div&gt;&amp;nbsp; - http/1.0&lt;/div&gt;&lt;div&gt;&amp;nbsp; - ttp/1.1&lt;/div&gt;&lt;div&gt;&amp;nbsp; - h2c&lt;/div&gt;" style="shape=document;whiteSpace=wrap;html=1;boundedLbl=1;fontSize=12;fillColor=none;align=left;size=0.16666666666666666;" parent="1" vertex="1">
          <mxGeometry x="-1082.5" y="1537" width="180" height="160" as="geometry" />
        </mxCell>
        <mxCell id="25" value="filter&lt;br&gt;&lt;br&gt;&quot;name&quot;: &quot;istio.metadata_exchange&quot;&lt;br&gt;" style="rounded=0;whiteSpace=wrap;html=1;fillColor=#ffe6cc;strokeColor=#d79b00;" parent="1" vertex="1">
          <mxGeometry x="-882.5" y="1648" width="230" height="65" as="geometry" />
        </mxCell>
        <mxCell id="26" value="&lt;div&gt;transport_socket:&lt;/div&gt;&lt;div&gt;&amp;nbsp; name: envoy.transport_sockets.tls&lt;/div&gt;&lt;div&gt;&amp;nbsp; typed_config:&lt;/div&gt;&lt;div&gt;&lt;span&gt;&amp;nbsp; &amp;nbsp; common_tls_context:&lt;/span&gt;&lt;br&gt;&lt;/div&gt;&lt;div&gt;&amp;nbsp; &amp;nbsp; &amp;nbsp; tls_params:&lt;/div&gt;&lt;div&gt;&amp;nbsp; &amp;nbsp; &amp;nbsp; &amp;nbsp; tls_minimum_protocol_version: TLSv1_2&lt;/div&gt;&lt;div&gt;&amp;nbsp; &amp;nbsp; &amp;nbsp; &amp;nbsp; cipher_suites:&lt;/div&gt;&lt;div&gt;&lt;span&gt;&amp;nbsp; &amp;nbsp; &amp;nbsp; &amp;nbsp; - AES256-GCM-SHA384&lt;/span&gt;&lt;br&gt;&lt;/div&gt;&lt;div&gt;&lt;span&gt;&amp;nbsp; &amp;nbsp; &amp;nbsp; alpn_protocols:&lt;/span&gt;&lt;br&gt;&lt;/div&gt;&lt;div&gt;&amp;nbsp; &amp;nbsp; &amp;nbsp; - h2&lt;/div&gt;&lt;div&gt;&amp;nbsp; &amp;nbsp; &amp;nbsp; - http/1.1&lt;/div&gt;&lt;div&gt;&amp;nbsp;&amp;nbsp;require_client_certificate: true&lt;/div&gt;" style="shape=document;whiteSpace=wrap;html=1;boundedLbl=1;fontSize=12;fillColor=none;align=left;size=0.16666666666666666;" parent="1" vertex="1">
          <mxGeometry x="-1082.5" y="1728" width="390" height="200" as="geometry" />
        </mxCell>
        <mxCell id="27" value="&lt;font color=&quot;#000000&quot;&gt;filter_chain&lt;/font&gt;&lt;br&gt;&lt;font color=&quot;#000000&quot;&gt;name: virtualInbound&lt;br&gt;&lt;br&gt;&lt;/font&gt;" style="rounded=1;whiteSpace=wrap;html=1;fillColor=none;strokeColor=#666666;fontColor=#333333;labelPosition=center;verticalLabelPosition=top;align=center;verticalAlign=bottom;spacingBottom=-50;" parent="1" vertex="1">
          <mxGeometry x="730" y="1990" width="595" height="470" as="geometry" />
        </mxCell>
        <mxCell id="28" value="&lt;div&gt;filter_chain_match:&lt;/div&gt;&lt;div&gt;&amp;nbsp; prefix_ranges:&lt;/div&gt;&lt;div&gt;&amp;nbsp; - address_prefix: 0.0.0.0&lt;/div&gt;&lt;div&gt;&amp;nbsp; &amp;nbsp; prefix_len: 0&lt;/div&gt;&lt;div&gt;&amp;nbsp; transport_protocol: tls&lt;/div&gt;&lt;div&gt;&amp;nbsp; application_protocols:&lt;/div&gt;&lt;div&gt;&amp;nbsp; - istio-peer-exchange&lt;/div&gt;&lt;div&gt;&amp;nbsp; - istio&lt;/div&gt;" style="shape=document;whiteSpace=wrap;html=1;boundedLbl=1;fontSize=12;fillColor=none;align=left;size=0.16666666666666666;" parent="1" vertex="1">
          <mxGeometry x="765" y="2050" width="180" height="160" as="geometry" />
        </mxCell>
        <mxCell id="29" value="filter&lt;br&gt;&lt;br&gt;&quot;name&quot;: &quot;istio.metadata_exchange&quot;&lt;br&gt;" style="rounded=0;whiteSpace=wrap;html=1;fillColor=#ffe6cc;strokeColor=#d79b00;" parent="1" vertex="1">
          <mxGeometry x="947.31" y="2155" width="265.38" height="75" as="geometry" />
        </mxCell>
        <mxCell id="30" value="filter&lt;br&gt;&lt;br&gt;envoy.filters.network.tcp_proxy&lt;br&gt;&quot;cluster&quot;: &quot;InboundPassthroughClusterIpv4&quot;" style="rounded=0;whiteSpace=wrap;html=1;fillColor=#ffe6cc;strokeColor=#d79b00;" parent="1" vertex="1">
          <mxGeometry x="965" y="2070" width="340" height="65" as="geometry" />
        </mxCell>
        <mxCell id="31" value="&lt;div&gt;transport_socket:&lt;/div&gt;&lt;div&gt;&amp;nbsp; name: envoy.transport_sockets.tls&lt;/div&gt;&lt;div&gt;&amp;nbsp; typed_config:&lt;/div&gt;&lt;div&gt;&lt;span&gt;&amp;nbsp; &amp;nbsp; common_tls_context:&lt;/span&gt;&lt;br&gt;&lt;/div&gt;&lt;div&gt;&amp;nbsp; &amp;nbsp; &amp;nbsp; tls_params:&lt;/div&gt;&lt;div&gt;&amp;nbsp; &amp;nbsp; &amp;nbsp; &amp;nbsp; tls_minimum_protocol_version: TLSv1_2&lt;/div&gt;&lt;div&gt;&amp;nbsp; &amp;nbsp; &amp;nbsp; &amp;nbsp; cipher_suites:&lt;/div&gt;&lt;div&gt;&lt;span&gt;&amp;nbsp; &amp;nbsp; &amp;nbsp; &amp;nbsp; - AES256-GCM-SHA384&lt;/span&gt;&lt;br&gt;&lt;/div&gt;&lt;div&gt;&lt;span&gt;&amp;nbsp; &amp;nbsp; &amp;nbsp; alpn_protocols:&lt;br&gt;&amp;nbsp; &amp;nbsp; &amp;nbsp; - istio-peer-exchange&lt;br&gt;&lt;/span&gt;&lt;/div&gt;&lt;div&gt;&amp;nbsp; &amp;nbsp; &amp;nbsp; - h2&lt;/div&gt;&lt;div&gt;&amp;nbsp; &amp;nbsp; &amp;nbsp; - http/1.1&lt;/div&gt;&lt;div&gt;&amp;nbsp; require_client_certificate: true&lt;br&gt;&lt;/div&gt;" style="shape=document;whiteSpace=wrap;html=1;boundedLbl=1;fontSize=12;fillColor=none;align=left;size=0.16666666666666666;" parent="1" vertex="1">
          <mxGeometry x="765" y="2240" width="390" height="220" as="geometry" />
        </mxCell>
        <mxCell id="32" value="filter&lt;br&gt;&lt;br&gt;envoy.filters.network.tcp_proxy&lt;br&gt;&quot;cluster&quot;: &quot;InboundPassthroughClusterIpv4&quot;" style="rounded=0;whiteSpace=wrap;html=1;fillColor=#ffe6cc;strokeColor=#d79b00;" parent="1" vertex="1">
          <mxGeometry x="-882.5" y="1558" width="340" height="65" as="geometry" />
        </mxCell>
        <mxCell id="33" value="&lt;font color=&quot;#000000&quot;&gt;filter_chain&lt;/font&gt;&lt;br&gt;&lt;font color=&quot;#000000&quot;&gt;name: virtualInbound&lt;br&gt;&lt;br&gt;&lt;/font&gt;" style="rounded=1;whiteSpace=wrap;html=1;fillColor=none;strokeColor=#666666;fontColor=#333333;labelPosition=center;verticalLabelPosition=top;align=center;verticalAlign=bottom;spacingBottom=-50;" parent="1" vertex="1">
          <mxGeometry x="1128" y="1458" width="595" height="470" as="geometry" />
        </mxCell>
        <mxCell id="34" value="&lt;div&gt;filter_chain_match:&lt;/div&gt;&lt;div&gt;&amp;nbsp; prefix_ranges:&lt;/div&gt;&lt;div&gt;&amp;nbsp; - address_prefix: 0.0.0.0&lt;/div&gt;&lt;div&gt;&amp;nbsp; &amp;nbsp; prefix_len: 0&lt;/div&gt;&lt;div&gt;&amp;nbsp; transport_protocol: tls&lt;/div&gt;&lt;div&gt;&lt;br&gt;&lt;/div&gt;" style="shape=document;whiteSpace=wrap;html=1;boundedLbl=1;fontSize=12;fillColor=none;align=left;size=0.16666666666666666;" parent="1" vertex="1">
          <mxGeometry x="1163" y="1518" width="180" height="160" as="geometry" />
        </mxCell>
        <mxCell id="35" value="filter&lt;br&gt;&lt;br&gt;&quot;name&quot;: &quot;istio.metadata_exchange&quot;&lt;br&gt;" style="rounded=0;whiteSpace=wrap;html=1;fillColor=#ffe6cc;strokeColor=#d79b00;" parent="1" vertex="1">
          <mxGeometry x="1345.31" y="1623" width="265.38" height="75" as="geometry" />
        </mxCell>
        <mxCell id="36" value="filter&lt;br&gt;&lt;br&gt;envoy.filters.network.tcp_proxy&lt;br&gt;&quot;cluster&quot;: &quot;InboundPassthroughClusterIpv4&quot;" style="rounded=0;whiteSpace=wrap;html=1;fillColor=#ffe6cc;strokeColor=#d79b00;" parent="1" vertex="1">
          <mxGeometry x="1363" y="1538" width="340" height="65" as="geometry" />
        </mxCell>
        <mxCell id="37" value="&lt;div&gt;transport_socket:&lt;/div&gt;&lt;div&gt;&amp;nbsp; name: envoy.transport_sockets.tls&lt;/div&gt;&lt;div&gt;&amp;nbsp; typed_config:&lt;/div&gt;&lt;div&gt;&lt;span&gt;&amp;nbsp; &amp;nbsp; common_tls_context:&lt;/span&gt;&lt;br&gt;&lt;/div&gt;&lt;div&gt;&amp;nbsp; &amp;nbsp; &amp;nbsp; tls_params:&lt;/div&gt;&lt;div&gt;&amp;nbsp; &amp;nbsp; &amp;nbsp; &amp;nbsp; tls_minimum_protocol_version: TLSv1_2&lt;/div&gt;&lt;div&gt;&amp;nbsp; &amp;nbsp; &amp;nbsp; &amp;nbsp; cipher_suites:&lt;/div&gt;&lt;div&gt;&lt;span&gt;&amp;nbsp; &amp;nbsp; &amp;nbsp; &amp;nbsp; - AES256-GCM-SHA384&lt;/span&gt;&lt;br&gt;&lt;/div&gt;&lt;div&gt;&lt;span&gt;&amp;nbsp; &amp;nbsp; &amp;nbsp; alpn_protocols:&lt;br&gt;&amp;nbsp; &amp;nbsp; &amp;nbsp; - istio-peer-exchange&lt;br&gt;&lt;/span&gt;&lt;/div&gt;&lt;div&gt;&amp;nbsp; &amp;nbsp; &amp;nbsp; - h2&lt;/div&gt;&lt;div&gt;&amp;nbsp; &amp;nbsp; &amp;nbsp; - http/1.1&lt;/div&gt;&lt;div&gt;&amp;nbsp; require_client_certificate: true&lt;br&gt;&lt;/div&gt;" style="shape=document;whiteSpace=wrap;html=1;boundedLbl=1;fontSize=12;fillColor=none;align=left;size=0.16666666666666666;" parent="1" vertex="1">
          <mxGeometry x="1163" y="1708" width="390" height="220" as="geometry" />
        </mxCell>
        <mxCell id="38" value="&lt;font color=&quot;#000000&quot;&gt;filter_chain&lt;/font&gt;&lt;br&gt;&lt;font color=&quot;#000000&quot;&gt;name: 0.0.0.0_8080&lt;br&gt;&lt;br&gt;&lt;/font&gt;" style="rounded=1;whiteSpace=wrap;html=1;fillColor=none;strokeColor=#666666;fontColor=#333333;labelPosition=center;verticalLabelPosition=top;align=center;verticalAlign=bottom;spacingBottom=-50;" parent="1" vertex="1">
          <mxGeometry x="730" y="2500" width="595" height="470" as="geometry" />
        </mxCell>
        <mxCell id="39" value="&lt;div&gt;filter_chain_match:&lt;/div&gt;&lt;div&gt;&amp;nbsp; destination_port:&amp;nbsp;8080&lt;/div&gt;&lt;div&gt;&lt;span&gt;&amp;nbsp; transport_protocol: tls&lt;/span&gt;&lt;br&gt;&lt;/div&gt;&lt;div&gt;&amp;nbsp; application_protocols:&lt;/div&gt;&lt;div&gt;&amp;nbsp; - istio-http/1.0&lt;/div&gt;&lt;div&gt;&amp;nbsp; - istio-http/1.1&lt;/div&gt;&lt;div&gt;&amp;nbsp; - istio-h2&lt;/div&gt;&lt;div&gt;&amp;nbsp; -&amp;nbsp;istio&lt;/div&gt;&lt;div&gt;&amp;nbsp; - istio-peer-exchange&lt;/div&gt;" style="shape=document;whiteSpace=wrap;html=1;boundedLbl=1;fontSize=12;fillColor=none;align=left;size=0.16666666666666666;" parent="1" vertex="1">
          <mxGeometry x="765" y="2560" width="180" height="160" as="geometry" />
        </mxCell>
        <mxCell id="40" value="filter&lt;br&gt;&lt;br&gt;&quot;name&quot;: &quot;istio.metadata_exchange&quot;&lt;br&gt;" style="rounded=0;whiteSpace=wrap;html=1;fillColor=#ffe6cc;strokeColor=#d79b00;" parent="1" vertex="1">
          <mxGeometry x="965" y="2670" width="230" height="65" as="geometry" />
        </mxCell>
        <mxCell id="41" value="filter&lt;br&gt;&lt;br&gt;name: envoy.filters.network.http_connection_manager" style="rounded=0;whiteSpace=wrap;html=1;fillColor=#ffe6cc;strokeColor=#d79b00;" parent="1" vertex="1">
          <mxGeometry x="965" y="2580" width="340" height="65" as="geometry" />
        </mxCell>
        <mxCell id="42" value="&lt;div&gt;transport_socket:&lt;/div&gt;&lt;div&gt;&amp;nbsp; name: envoy.transport_sockets.tls&lt;/div&gt;&lt;div&gt;&amp;nbsp; typed_config:&lt;/div&gt;&lt;div&gt;&lt;span&gt;&amp;nbsp; &amp;nbsp; common_tls_context:&lt;/span&gt;&lt;br&gt;&lt;/div&gt;&lt;div&gt;&amp;nbsp; &amp;nbsp; &amp;nbsp; tls_params:&lt;/div&gt;&lt;div&gt;&amp;nbsp; &amp;nbsp; &amp;nbsp; &amp;nbsp; tls_minimum_protocol_version: TLSv1_2&lt;/div&gt;&lt;div&gt;&amp;nbsp; &amp;nbsp; &amp;nbsp; &amp;nbsp; cipher_suites:&lt;/div&gt;&lt;div&gt;&lt;span&gt;&amp;nbsp; &amp;nbsp; &amp;nbsp; &amp;nbsp; - AES256-GCM-SHA384&lt;/span&gt;&lt;br&gt;&lt;/div&gt;&lt;div&gt;&lt;span&gt;&amp;nbsp; &amp;nbsp; &amp;nbsp; alpn_protocols:&lt;/span&gt;&lt;br&gt;&lt;/div&gt;&lt;div&gt;&amp;nbsp; &amp;nbsp; &amp;nbsp; - h2&lt;/div&gt;&lt;div&gt;&amp;nbsp; &amp;nbsp; &amp;nbsp; - http/1.1&lt;/div&gt;" style="shape=document;whiteSpace=wrap;html=1;boundedLbl=1;fontSize=12;fillColor=none;align=left;size=0.16666666666666666;" parent="1" vertex="1">
          <mxGeometry x="765" y="2750" width="390" height="200" as="geometry" />
        </mxCell>
        <mxCell id="43" value="http_connection_manager" style="rounded=1;whiteSpace=wrap;html=1;fillColor=none;strokeColor=#666666;fontColor=#333333;labelPosition=center;verticalLabelPosition=top;align=center;verticalAlign=bottom;spacingBottom=-30;" parent="1" vertex="1">
          <mxGeometry x="-1725" y="2400" width="1050" height="540" as="geometry" />
        </mxCell>
        <mxCell id="44" value="&lt;font color=&quot;#000000&quot;&gt;http_filters&lt;/font&gt;&lt;br&gt;&lt;font color=&quot;#000000&quot;&gt;&lt;br&gt;&lt;/font&gt;" style="rounded=1;whiteSpace=wrap;html=1;fillColor=none;strokeColor=#666666;fontColor=#333333;labelPosition=center;verticalLabelPosition=top;align=center;verticalAlign=bottom;spacingBottom=-50;" parent="1" vertex="1">
          <mxGeometry x="-1290" y="2450" width="595" height="430" as="geometry" />
        </mxCell>
        <mxCell id="45" value="&lt;font color=&quot;#000000&quot;&gt;virtual_hosts&lt;br&gt;&lt;/font&gt;" style="rounded=1;whiteSpace=wrap;html=1;fillColor=none;strokeColor=#666666;fontColor=#333333;labelPosition=center;verticalLabelPosition=top;align=center;verticalAlign=bottom;spacingBottom=-50;" parent="1" vertex="1">
          <mxGeometry x="-1715" y="2450" width="400" height="362.5" as="geometry" />
        </mxCell>
        <mxCell id="46" value="&lt;div&gt;route_config:&lt;br&gt;- name: inbound|http|8080&lt;/div&gt;&lt;div&gt;&amp;nbsp; domains:&lt;/div&gt;&lt;div&gt;&amp;nbsp; - &quot;*&quot;&lt;/div&gt;&lt;div&gt;&amp;nbsp; routes:&lt;/div&gt;&lt;div&gt;&amp;nbsp; - match:&lt;/div&gt;&lt;div&gt;&amp;nbsp; &amp;nbsp; &amp;nbsp; prefix: &quot;/&quot;&lt;/div&gt;&lt;div&gt;&amp;nbsp; &amp;nbsp; route:&lt;/div&gt;&lt;div&gt;&amp;nbsp; &amp;nbsp; &amp;nbsp; cluster: &lt;font color=&quot;#ff3333&quot;&gt;&lt;b&gt;inbound|8080||&lt;/b&gt;&lt;/font&gt;&lt;/div&gt;&lt;div&gt;&amp;nbsp; &amp;nbsp; &amp;nbsp; timeout: 0s&lt;/div&gt;&lt;div&gt;&amp;nbsp; &amp;nbsp; &amp;nbsp; max_stream_duration:&lt;/div&gt;&lt;div&gt;&amp;nbsp; &amp;nbsp; &amp;nbsp; &amp;nbsp; max_stream_duration: 0s&lt;/div&gt;&lt;div&gt;&amp;nbsp; &amp;nbsp; &amp;nbsp; &amp;nbsp; grpc_timeout_header_max: 0s&lt;/div&gt;&lt;div&gt;&amp;nbsp; &amp;nbsp; decorator:&lt;/div&gt;&lt;div&gt;&amp;nbsp; &amp;nbsp; &amp;nbsp; operation: &quot;:0/*&quot;&lt;/div&gt;&lt;div&gt;&amp;nbsp; &amp;nbsp; name: default&lt;/div&gt;" style="rounded=0;whiteSpace=wrap;html=1;fillColor=#d5e8d4;strokeColor=#82b366;align=left;" parent="1" vertex="1">
          <mxGeometry x="-1685" y="2535" width="260" height="257.5" as="geometry" />
        </mxCell>
        <mxCell id="47" value="http filter&lt;br&gt;&lt;br&gt;&quot;name&quot;: &quot;istio.metadata_exchange&quot;" style="rounded=0;whiteSpace=wrap;html=1;fillColor=#ffe6cc;strokeColor=#d79b00;" parent="1" vertex="1">
          <mxGeometry x="-1120" y="2780" width="230" height="65" as="geometry" />
        </mxCell>
        <mxCell id="48" value="http filter&lt;br&gt;&lt;br&gt;envoy.filters.http.cors" style="rounded=0;whiteSpace=wrap;html=1;fillColor=#ffe6cc;strokeColor=#d79b00;" parent="1" vertex="1">
          <mxGeometry x="-1120" y="2690" width="230" height="65" as="geometry" />
        </mxCell>
        <mxCell id="49" value="http filter&lt;br&gt;&lt;br&gt;envoy.filters.http.fault" style="rounded=0;whiteSpace=wrap;html=1;fillColor=#ffe6cc;strokeColor=#d79b00;" parent="1" vertex="1">
          <mxGeometry x="-1120" y="2600" width="230" height="65" as="geometry" />
        </mxCell>
        <mxCell id="50" value="http filter&lt;br&gt;&lt;br&gt;envoy.filters.http.router" style="rounded=0;whiteSpace=wrap;html=1;fillColor=#ffe6cc;strokeColor=#d79b00;" parent="1" vertex="1">
          <mxGeometry x="-1120" y="2510" width="230" height="65" as="geometry" />
        </mxCell>
        <mxCell id="51" value="http streams&lt;br&gt;multiplexing&lt;br&gt;(http chain instance&lt;br&gt;per stream)" style="endArrow=classic;html=1;rounded=0;fontSize=12;dashed=1;dashPattern=1 2;startArrow=none;edgeStyle=orthogonalEdgeStyle;" parent="1" source="108" target="47" edge="1">
          <mxGeometry width="50" height="50" relative="1" as="geometry">
            <mxPoint x="-591" y="2696" as="sourcePoint" />
            <mxPoint x="-630" y="2610" as="targetPoint" />
            <Array as="points">
              <mxPoint x="-780" y="2812" />
            </Array>
          </mxGeometry>
        </mxCell>
        <mxCell id="52" value="zoom in" style="aspect=fixed;html=1;points=[];align=center;image;fontSize=12;image=img/lib/azure2/general/Search.svg;fillColor=none;" parent="1" vertex="1">
          <mxGeometry x="-630" y="2672.5" width="39.38" height="40" as="geometry" />
        </mxCell>
        <mxCell id="53" value="" style="endArrow=none;html=1;rounded=0;fontSize=12;dashed=1;dashPattern=1 2;" parent="1" source="56" target="52" edge="1">
          <mxGeometry width="50" height="50" relative="1" as="geometry">
            <mxPoint x="-675" y="2691.121798968852" as="sourcePoint" />
            <mxPoint x="-640" y="2759.0625" as="targetPoint" />
          </mxGeometry>
        </mxCell>
        <mxCell id="54" value="&lt;div&gt;filter_chain_match:&lt;/div&gt;&lt;div&gt;&amp;nbsp; destination_port:&amp;nbsp;8080&lt;/div&gt;&lt;div&gt;&lt;span&gt;&amp;nbsp; transport_protocol: raw_buffer&lt;/span&gt;&lt;br&gt;&lt;/div&gt;&lt;div&gt;&lt;br&gt;&lt;/div&gt;" style="shape=document;whiteSpace=wrap;html=1;boundedLbl=1;fontSize=12;fillColor=none;align=left;size=0.16666666666666666;" parent="1" vertex="1">
          <mxGeometry x="-475" y="2560" width="180" height="160" as="geometry" />
        </mxCell>
        <mxCell id="55" value="filter&lt;br&gt;&lt;br&gt;&quot;name&quot;: &quot;istio.metadata_exchange&quot;&lt;br&gt;" style="rounded=0;whiteSpace=wrap;html=1;fillColor=#ffe6cc;strokeColor=#d79b00;" parent="1" vertex="1">
          <mxGeometry x="-220" y="2672.5" width="230" height="65" as="geometry" />
        </mxCell>
        <mxCell id="56" value="filter&lt;br&gt;&lt;br&gt;name: envoy.filters.network.http_connection_manager" style="rounded=0;whiteSpace=wrap;html=1;fillColor=#ffe6cc;strokeColor=#d79b00;" parent="1" vertex="1">
          <mxGeometry x="-275" y="2580" width="340" height="65" as="geometry" />
        </mxCell>
        <mxCell id="57" value="&lt;div&gt;transport_socket:&lt;/div&gt;&lt;div&gt;&amp;nbsp; name: envoy.transport_sockets.tls&lt;/div&gt;&lt;div&gt;&amp;nbsp; typed_config:&lt;/div&gt;&lt;div&gt;&lt;span&gt;&amp;nbsp; &amp;nbsp; common_tls_context:&lt;/span&gt;&lt;br&gt;&lt;/div&gt;&lt;div&gt;&amp;nbsp; &amp;nbsp; &amp;nbsp; tls_params:&lt;/div&gt;&lt;div&gt;&amp;nbsp; &amp;nbsp; &amp;nbsp; &amp;nbsp; tls_minimum_protocol_version: TLSv1_2&lt;/div&gt;&lt;div&gt;&amp;nbsp; &amp;nbsp; &amp;nbsp; &amp;nbsp; cipher_suites:&lt;/div&gt;&lt;div&gt;&lt;span&gt;&amp;nbsp; &amp;nbsp; &amp;nbsp; &amp;nbsp; - AES256-GCM-SHA384&lt;/span&gt;&lt;br&gt;&lt;/div&gt;&lt;div&gt;&lt;span&gt;&amp;nbsp; &amp;nbsp; &amp;nbsp; alpn_protocols:&lt;/span&gt;&lt;br&gt;&lt;/div&gt;&lt;div&gt;&amp;nbsp; &amp;nbsp; &amp;nbsp; - h2&lt;/div&gt;&lt;div&gt;&amp;nbsp; &amp;nbsp; &amp;nbsp; - http/1.1&lt;/div&gt;" style="shape=document;whiteSpace=wrap;html=1;boundedLbl=1;fontSize=12;fillColor=none;align=left;size=0.16666666666666666;" parent="1" vertex="1">
          <mxGeometry x="-475" y="2750" width="390" height="200" as="geometry" />
        </mxCell>
        <mxCell id="58" value="Client" style="sketch=0;outlineConnect=0;fontColor=#232F3E;gradientColor=none;fillColor=#232F3E;strokeColor=none;dashed=0;verticalLabelPosition=bottom;verticalAlign=top;align=center;html=1;fontSize=12;fontStyle=0;aspect=fixed;pointerEvents=1;shape=mxgraph.aws4.client;" parent="1" vertex="1">
          <mxGeometry x="-37.75" y="3970" width="78" height="76" as="geometry" />
        </mxCell>
        <mxCell id="59" value="podIP:8080" style="endArrow=classic;html=1;rounded=0;fontSize=12;" parent="1" source="58" target="76" edge="1">
          <mxGeometry width="50" height="50" relative="1" as="geometry">
            <mxPoint x="91.25" y="3320" as="sourcePoint" />
            <mxPoint x="141.25" y="3270" as="targetPoint" />
          </mxGeometry>
        </mxCell>
        <mxCell id="60" value="" style="endArrow=classic;html=1;rounded=0;dashed=1;dashPattern=1 2;fontSize=12;" parent="1" source="11" target="12" edge="1">
          <mxGeometry width="50" height="50" relative="1" as="geometry">
            <mxPoint x="520" y="3210" as="sourcePoint" />
            <mxPoint x="570" y="3160" as="targetPoint" />
          </mxGeometry>
        </mxCell>
        <mxCell id="61" value="" style="endArrow=classic;html=1;rounded=0;dashed=1;dashPattern=1 2;fontSize=12;" parent="1" source="12" target="13" edge="1">
          <mxGeometry width="50" height="50" relative="1" as="geometry">
            <mxPoint x="520" y="3210" as="sourcePoint" />
            <mxPoint x="570" y="3160" as="targetPoint" />
          </mxGeometry>
        </mxCell>
        <mxCell id="62" value="" style="endArrow=classic;html=1;rounded=0;dashed=1;dashPattern=1 2;fontSize=12;startArrow=none;" parent="1" source="68" target="98" edge="1">
          <mxGeometry width="50" height="50" relative="1" as="geometry">
            <mxPoint x="460" y="2930" as="sourcePoint" />
            <mxPoint x="510" y="2880" as="targetPoint" />
          </mxGeometry>
        </mxCell>
        <mxCell id="63" value="" style="endArrow=classic;html=1;rounded=0;dashed=1;dashPattern=1 2;fontSize=12;" parent="1" source="55" target="56" edge="1">
          <mxGeometry width="50" height="50" relative="1" as="geometry">
            <mxPoint x="460" y="2930" as="sourcePoint" />
            <mxPoint x="510" y="2880" as="targetPoint" />
          </mxGeometry>
        </mxCell>
        <mxCell id="64" value="" style="sketch=0;aspect=fixed;pointerEvents=1;shadow=0;dashed=0;html=1;strokeColor=none;labelPosition=center;verticalLabelPosition=bottom;verticalAlign=top;align=center;fillColor=#00188D;shape=mxgraph.mscae.enterprise.application;fontSize=12;" parent="1" vertex="1">
          <mxGeometry x="308.8199999999997" y="60" width="132.35" height="90" as="geometry" />
        </mxCell>
        <mxCell id="65" value="" style="endArrow=classic;html=1;rounded=0;dashed=1;dashPattern=1 2;fontSize=12;jumpStyle=arc;" parent="1" source="47" target="48" edge="1">
          <mxGeometry width="50" height="50" relative="1" as="geometry">
            <mxPoint x="-882.5" y="2557.5" as="sourcePoint" />
            <mxPoint x="-832.5" y="2507.5" as="targetPoint" />
          </mxGeometry>
        </mxCell>
        <mxCell id="66" value="" style="endArrow=classic;html=1;rounded=0;dashed=1;dashPattern=1 2;fontSize=12;jumpStyle=arc;" parent="1" source="48" target="49" edge="1">
          <mxGeometry width="50" height="50" relative="1" as="geometry">
            <mxPoint x="-882.5" y="2557.5" as="sourcePoint" />
            <mxPoint x="-832.5" y="2507.5" as="targetPoint" />
          </mxGeometry>
        </mxCell>
        <mxCell id="67" value="" style="endArrow=classic;html=1;rounded=0;dashed=1;dashPattern=1 2;fontSize=12;jumpStyle=arc;" parent="1" source="49" target="50" edge="1">
          <mxGeometry width="50" height="50" relative="1" as="geometry">
            <mxPoint x="-882.5" y="2557.5" as="sourcePoint" />
            <mxPoint x="-832.5" y="2507.5" as="targetPoint" />
          </mxGeometry>
        </mxCell>
        <mxCell id="68" value="FilterChainManager&#xa;Filter Chain selector" style="strokeWidth=2;outlineConnect=0;dashed=0;align=center;fontSize=12;fillColor=#c0f5a9;verticalLabelPosition=bottom;verticalAlign=top;shape=mxgraph.eip.content_based_router;" parent="1" vertex="1">
          <mxGeometry x="350" y="2860" width="150" height="90" as="geometry" />
        </mxCell>
        <mxCell id="69" value="" style="endArrow=none;html=1;rounded=0;dashed=1;dashPattern=1 2;fontSize=12;" parent="1" source="13" target="68" edge="1">
          <mxGeometry width="50" height="50" relative="1" as="geometry">
            <mxPoint x="616.5517241379312" y="3110" as="sourcePoint" />
            <mxPoint x="-47.09770114942421" y="2737.5" as="targetPoint" />
          </mxGeometry>
        </mxCell>
        <UserObject label="socket.addressProvider().restoreLocalAddress(original_local_address);&lt;br&gt;通过&amp;nbsp;sock.getSocketOption(SOL_IP, SO_ORIGINAL_DST, &amp;amp;orig_addr, &amp;amp;addr_len) 获取客户端连接在 kernel netfilter 前的原始地址。" link="https://github.com/envoyproxy/envoy/blob/release/v1.18/source/extensions/filters/listener/original_dst/original_dst.cc#L67" id="70">
          <mxCell style="shape=note;strokeWidth=2;fontSize=12;size=20;whiteSpace=wrap;html=1;fillColor=#fff2cc;strokeColor=#d6b656;fontColor=#666600;align=left;fontStyle=0;shadow=1;sketch=0;" parent="1" vertex="1">
            <mxGeometry x="1380" y="3250" width="420" height="80" as="geometry" />
          </mxCell>
        </UserObject>
        <mxCell id="71" value="" style="endArrow=none;dashed=1;html=1;dashPattern=1 3;strokeWidth=2;rounded=0;fontSize=12;" parent="1" source="70" target="11" edge="1">
          <mxGeometry width="50" height="50" relative="1" as="geometry">
            <mxPoint x="1770" y="3445" as="sourcePoint" />
            <mxPoint x="2200" y="3287.9032258064517" as="targetPoint" />
          </mxGeometry>
        </mxCell>
        <UserObject label="&lt;b&gt;raw_buffer&lt;/b&gt; -&amp;nbsp;default, used when no transport protocol is detected," link="https://www.envoyproxy.io/docs/envoy/v1.18.3/api-v3/config/listener/v3/listener_components.proto.html?highlight=filter_chain_match#envoy-v3-api-msg-config-listener-v3-filterchainmatch" id="72">
          <mxCell style="shape=note;strokeWidth=2;fontSize=12;size=20;whiteSpace=wrap;html=1;fillColor=#fff2cc;strokeColor=#d6b656;fontColor=#666600;align=left;fontStyle=0;shadow=1;sketch=0;" parent="1" vertex="1">
            <mxGeometry x="-1000" y="3050" width="370" height="47.5" as="geometry" />
          </mxCell>
        </UserObject>
        <mxCell id="73" value="" style="endArrow=none;dashed=1;html=1;dashPattern=1 3;strokeWidth=2;rounded=0;fontSize=12;" parent="1" source="72" target="54" edge="1">
          <mxGeometry width="50" height="50" relative="1" as="geometry">
            <mxPoint x="-840" y="2337.5" as="sourcePoint" />
            <mxPoint x="-1810" y="2208.260869565217" as="targetPoint" />
          </mxGeometry>
        </mxCell>
        <UserObject label="&lt;span&gt;&lt;b&gt;transport_socket : inbound TLS 加密配置&lt;/b&gt;&lt;br&gt;&lt;br&gt;Optional custom transport socket implementation to use for downstream connections. To setup TLS, set a transport socket with name tls and DownstreamTlsContext in the typed_config. If no transport socket configuration is specified, new connections will be set up with plaintext.&lt;br&gt;&lt;/span&gt;" link="https://www.envoyproxy.io/docs/envoy/v1.18.3/api-v3/config/listener/v3/listener_components.proto.html?highlight=filter_chain_match#config-listener-v3-filterchain" id="74">
          <mxCell style="shape=note;strokeWidth=2;fontSize=12;size=20;whiteSpace=wrap;html=1;fillColor=#fff2cc;strokeColor=#d6b656;fontColor=#666600;align=left;fontStyle=0;shadow=1;sketch=0;" parent="1" vertex="1">
            <mxGeometry x="-1090" y="3260" width="540" height="90" as="geometry" />
          </mxCell>
        </UserObject>
        <mxCell id="75" value="" style="endArrow=none;dashed=1;html=1;dashPattern=1 3;strokeWidth=2;rounded=0;fontSize=12;" parent="1" source="74" target="57" edge="1">
          <mxGeometry width="50" height="50" relative="1" as="geometry">
            <mxPoint x="-1035.69" y="1548.75" as="sourcePoint" />
            <mxPoint x="-659.9983573487034" y="1931.25" as="targetPoint" />
          </mxGeometry>
        </mxCell>
        <mxCell id="76" value="redirect rule" style="rounded=0;whiteSpace=wrap;html=1;fillColor=#ffe6cc;strokeColor=#d79b00;" parent="1" vertex="1">
          <mxGeometry x="-128.75" y="3690" width="260" height="60" as="geometry" />
        </mxCell>
        <UserObject label="&lt;div&gt;-A ISTIO_INBOUND -p tcp -j ISTIO_IN_REDIRECT&lt;/div&gt;&lt;div&gt;-A ISTIO_IN_REDIRECT -p tcp -j REDIRECT --to-ports 15006&lt;/div&gt;&lt;div&gt;&lt;br&gt;&lt;/div&gt;" link="https://github.com/envoyproxy/envoy/blob/release/v1.18/source/extensions/filters/listener/original_dst/original_dst.cc#L67" id="77">
          <mxCell style="shape=note;strokeWidth=2;fontSize=12;size=20;whiteSpace=wrap;html=1;fillColor=#fff2cc;strokeColor=#d6b656;fontColor=#666600;align=left;fontStyle=0;shadow=1;sketch=0;" parent="1" vertex="1">
            <mxGeometry x="510" y="3640" width="450" height="120" as="geometry" />
          </mxCell>
        </UserObject>
        <mxCell id="78" value="" style="endArrow=none;dashed=1;html=1;dashPattern=1 3;strokeWidth=2;rounded=0;fontSize=12;" parent="1" source="77" target="76" edge="1">
          <mxGeometry width="50" height="50" relative="1" as="geometry">
            <mxPoint x="1101.25" y="3755" as="sourcePoint" />
            <mxPoint x="131.2499999999991" y="3625.760869565218" as="targetPoint" />
          </mxGeometry>
        </mxCell>
        <mxCell id="79" value="" style="endArrow=classic;html=1;rounded=0;fontSize=12;" parent="1" source="76" target="2" edge="1">
          <mxGeometry width="50" height="50" relative="1" as="geometry">
            <mxPoint x="679.9999999999991" y="4230" as="sourcePoint" />
            <mxPoint x="679.9999999999991" y="4010" as="targetPoint" />
          </mxGeometry>
        </mxCell>
        <mxCell id="80" value="dynamic_active_clusters" style="rounded=1;whiteSpace=wrap;html=1;fillColor=#f5f5f5;strokeColor=#666666;fontColor=#333333;labelPosition=center;verticalLabelPosition=top;align=center;verticalAlign=bottom;spacingBottom=-30;" parent="1" vertex="1">
          <mxGeometry x="-530" y="567" width="1122" height="540" as="geometry" />
        </mxCell>
        <mxCell id="81" value="&quot;name&quot;: &quot;InboundPassthroughClusterIpv4&quot;&lt;br&gt;&lt;a href=&quot;https://www.envoyproxy.io/docs/envoy/latest/intro/arch_overview/upstream/service_discovery#original-destination&quot;&gt;&quot;type&quot;: &quot;ORIGINAL_DST&quot;&lt;br&gt;&lt;/a&gt;&quot;connect_timeout&quot;: &quot;10s&quot;&lt;br&gt;lb_policy:&lt;br&gt;circuit_breakers:" style="shape=document;whiteSpace=wrap;html=1;boundedLbl=1;fontSize=12;align=left;size=0.16666666666666666;" parent="1" vertex="1">
          <mxGeometry x="-475" y="704" width="255" height="160" as="geometry" />
        </mxCell>
        <mxCell id="82" value="&quot;name&quot;: &quot;PassthroughCluster&quot;&lt;br&gt;&quot;type&quot;: &quot;ORIGINAL_DST&quot;&lt;br&gt;&quot;connect_timeout&quot;: &quot;10s&quot;&lt;br&gt;lb_policy:&lt;br&gt;circuit_breakers:" style="shape=document;whiteSpace=wrap;html=1;boundedLbl=1;fontSize=12;align=left;size=0.16666666666666666;" parent="1" vertex="1">
          <mxGeometry x="-130" y="714" width="210" height="140" as="geometry" />
        </mxCell>
        <mxCell id="83" value="&lt;font color=&quot;#000000&quot;&gt;cluster&lt;br&gt;&lt;/font&gt;" style="rounded=1;whiteSpace=wrap;html=1;fillColor=none;strokeColor=#666666;fontColor=#333333;labelPosition=center;verticalLabelPosition=top;align=center;verticalAlign=bottom;spacingBottom=-50;" parent="1" vertex="1">
          <mxGeometry x="-500" y="646.5" width="320" height="277.5" as="geometry" />
        </mxCell>
        <mxCell id="84" value="&lt;font color=&quot;#000000&quot;&gt;cluster&lt;br&gt;&lt;/font&gt;" style="rounded=1;whiteSpace=wrap;html=1;fillColor=none;strokeColor=#666666;fontColor=#333333;labelPosition=center;verticalLabelPosition=top;align=center;verticalAlign=bottom;spacingBottom=-50;" parent="1" vertex="1">
          <mxGeometry x="-150" y="645.25" width="320" height="408.75" as="geometry" />
        </mxCell>
        <mxCell id="85" value="&lt;font color=&quot;#000000&quot;&gt;filters&lt;/font&gt;&lt;font color=&quot;#000000&quot;&gt;&lt;br&gt;&lt;/font&gt;" style="rounded=1;whiteSpace=wrap;html=1;fillColor=none;strokeColor=#666666;fontColor=#333333;labelPosition=center;verticalLabelPosition=top;align=center;verticalAlign=bottom;spacingBottom=-50;" parent="1" vertex="1">
          <mxGeometry x="-130" y="884" width="270" height="140" as="geometry" />
        </mxCell>
        <mxCell id="86" value="&quot;name&quot;: &quot;istio.metadata_exchange&quot;&lt;br&gt;&quot;protocol&quot;: &quot;istio-peer-exchange&quot;" style="rounded=0;whiteSpace=wrap;html=1;fillColor=#ffe6cc;strokeColor=#d79b00;" parent="1" vertex="1">
          <mxGeometry x="-105" y="944" width="230" height="65" as="geometry" />
        </mxCell>
        <mxCell id="87" value="&lt;font color=&quot;#000000&quot;&gt;cluster&lt;br&gt;&lt;/font&gt;" style="rounded=1;whiteSpace=wrap;html=1;fillColor=none;strokeColor=#666666;fontColor=#333333;labelPosition=center;verticalLabelPosition=top;align=center;verticalAlign=bottom;spacingBottom=-50;" parent="1" vertex="1">
          <mxGeometry x="220" y="635.88" width="320" height="408.75" as="geometry" />
        </mxCell>
        <mxCell id="88" value="&lt;font color=&quot;#000000&quot;&gt;filters&lt;/font&gt;&lt;font color=&quot;#000000&quot;&gt;&lt;br&gt;&lt;/font&gt;" style="rounded=1;whiteSpace=wrap;html=1;fillColor=none;strokeColor=#666666;fontColor=#333333;labelPosition=center;verticalLabelPosition=top;align=center;verticalAlign=bottom;spacingBottom=-50;" parent="1" vertex="1">
          <mxGeometry x="240" y="874.63" width="270" height="140" as="geometry" />
        </mxCell>
        <mxCell id="89" value="&quot;name&quot;: &quot;istio.metadata_exchange&quot;&lt;br&gt;&quot;protocol&quot;: &quot;istio-peer-exchange&quot;" style="rounded=0;whiteSpace=wrap;html=1;fillColor=#ffe6cc;strokeColor=#d79b00;" parent="1" vertex="1">
          <mxGeometry x="265" y="934.63" width="230" height="65" as="geometry" />
        </mxCell>
        <mxCell id="90" value="&quot;name&quot;: &quot;inbound|8080||&quot;&lt;br&gt;&lt;font color=&quot;#ff3333&quot;&gt;&quot;type&quot;: &quot;ORIGINAL_DST&quot;&lt;br&gt;&lt;/font&gt;&quot;connect_timeout&quot;: &quot;10s&quot;&lt;br&gt;lb_policy:&lt;br&gt;circuit_breakers:&lt;br&gt;&quot;cleanup_interval&quot;: &quot;60s&quot;," style="shape=document;whiteSpace=wrap;html=1;boundedLbl=1;fontSize=12;align=left;size=0.16666666666666666;" parent="1" vertex="1">
          <mxGeometry x="240" y="704.63" width="210" height="140" as="geometry" />
        </mxCell>
        <mxCell id="91" value="" style="endArrow=classic;html=1;rounded=0;dashed=1;dashPattern=1 2;fontSize=12;exitX=0.631;exitY=1;exitDx=0;exitDy=0;exitPerimeter=0;" parent="1" source="2" target="11" edge="1">
          <mxGeometry width="50" height="50" relative="1" as="geometry">
            <mxPoint x="675.0621118012423" y="3950" as="sourcePoint" />
            <mxPoint x="596.0559006211179" y="3470" as="targetPoint" />
          </mxGeometry>
        </mxCell>
        <UserObject label="&lt;div&gt;1. A TCP connection from downstream is accepted by an Envoy listener running on a worker thread.&lt;br&gt;&lt;/div&gt;" link="https://www.envoyproxy.io/docs/envoy/latest/intro/life_of_a_request" id="92">
          <mxCell style="shape=note;strokeWidth=2;fontSize=12;size=20;whiteSpace=wrap;html=1;fillColor=#f8cecc;strokeColor=#b85450;align=left;fontStyle=0;shadow=1;sketch=0;" parent="1" vertex="1">
            <mxGeometry x="1240" y="3520" width="450" height="120" as="geometry" />
          </mxCell>
        </UserObject>
        <mxCell id="93" value="" style="endArrow=none;dashed=1;html=1;dashPattern=1 3;strokeWidth=2;rounded=0;fontSize=12;fillColor=#e1d5e7;strokeColor=#9673a6;entryX=0.633;entryY=1.001;entryDx=0;entryDy=0;entryPerimeter=0;" parent="1" source="92" target="2" edge="1">
          <mxGeometry width="50" height="50" relative="1" as="geometry">
            <mxPoint x="1650" y="3825" as="sourcePoint" />
            <mxPoint x="590" y="3470" as="targetPoint" />
          </mxGeometry>
        </mxCell>
        <mxCell id="94" value="" style="endArrow=none;dashed=1;html=1;dashPattern=1 3;strokeWidth=2;rounded=0;fontSize=12;fillColor=#e1d5e7;strokeColor=#9673a6;" parent="1" source="95" target="10" edge="1">
          <mxGeometry width="50" height="50" relative="1" as="geometry">
            <mxPoint x="1790" y="3305" as="sourcePoint" />
            <mxPoint x="730" y="2950" as="targetPoint" />
          </mxGeometry>
        </mxCell>
        <UserObject label="&lt;div&gt;2. The listener filter chain is created and runs. I&lt;b&gt;t can provide SNI and other pre-TLS info&lt;/b&gt;. Once completed, the listener will match a network filter chain. Each listener may have multiple filter chains which match on some combination of destination IP CIDR range, SNI, ALPN, source ports, etc. A transport socket, in our case the TLS transport socket, is associated with this filter chain.&lt;br&gt;&lt;/div&gt;" id="95">
          <mxCell style="shape=note;strokeWidth=2;fontSize=12;size=20;whiteSpace=wrap;html=1;fillColor=#f8cecc;strokeColor=#b85450;align=left;fontStyle=0;shadow=1;sketch=0;" parent="1" vertex="1">
            <mxGeometry x="1380" y="3000" width="450" height="120" as="geometry" />
          </mxCell>
        </UserObject>
        <UserObject label="&lt;div&gt;2.1&amp;nbsp;Information extracted from the listener filters and connection properties is then used to match a filter chain&lt;/div&gt;" id="96">
          <mxCell style="shape=note;strokeWidth=2;fontSize=12;size=20;whiteSpace=wrap;html=1;fillColor=#f8cecc;strokeColor=#b85450;align=left;fontStyle=0;shadow=1;sketch=0;" parent="1" vertex="1">
            <mxGeometry x="-100" y="3210" width="450" height="80" as="geometry" />
          </mxCell>
        </UserObject>
        <mxCell id="97" value="" style="endArrow=none;dashed=1;html=1;dashPattern=1 3;strokeWidth=2;rounded=0;fontSize=12;fillColor=#e1d5e7;strokeColor=#9673a6;" parent="1" source="96" target="68" edge="1">
          <mxGeometry width="50" height="50" relative="1" as="geometry">
            <mxPoint x="282.3499999999999" y="3436.7" as="sourcePoint" />
            <mxPoint x="-587.6500000000001" y="3308.2957446808505" as="targetPoint" />
          </mxGeometry>
        </mxCell>
        <mxCell id="98" value="runtime:&lt;br&gt;transport socket(may SslSocket)" style="ellipse;whiteSpace=wrap;html=1;aspect=fixed;rounded=0;shadow=1;fillColor=default;" parent="1" vertex="1">
          <mxGeometry x="130" y="2780" width="80" height="80" as="geometry" />
        </mxCell>
        <mxCell id="99" value="configurare&lt;br&gt;配置源于" style="endArrow=none;dashed=1;html=1;dashPattern=1 3;strokeWidth=2;rounded=0;edgeStyle=orthogonalEdgeStyle;jumpStyle=arc;" parent="1" source="98" target="57" edge="1">
          <mxGeometry width="50" height="50" relative="1" as="geometry">
            <mxPoint x="-910" y="3230" as="sourcePoint" />
            <mxPoint x="-860" y="3180" as="targetPoint" />
          </mxGeometry>
        </mxCell>
        <mxCell id="100" value="Decrypt" style="endArrow=classic;html=1;rounded=0;dashed=1;dashPattern=1 2;fontSize=12;startArrow=none;" parent="1" source="98" target="55" edge="1">
          <mxGeometry width="50" height="50" relative="1" as="geometry">
            <mxPoint x="360" y="2890" as="sourcePoint" />
            <mxPoint x="217.9473319220133" y="2842.649110640672" as="targetPoint" />
          </mxGeometry>
        </mxCell>
        <UserObject label="&lt;div&gt;3.&amp;nbsp;&lt;span&gt;TLS transport socket decryption&lt;/span&gt;&lt;/div&gt;" id="101">
          <mxCell style="shape=note;strokeWidth=2;fontSize=12;size=20;whiteSpace=wrap;html=1;fillColor=#f8cecc;strokeColor=#b85450;align=left;fontStyle=0;shadow=1;sketch=0;" parent="1" vertex="1">
            <mxGeometry x="-400" y="3060" width="260" height="60" as="geometry" />
          </mxCell>
        </UserObject>
        <mxCell id="102" value="" style="endArrow=none;dashed=1;html=1;dashPattern=1 3;strokeWidth=2;rounded=0;fontSize=12;fillColor=#e1d5e7;strokeColor=#9673a6;" parent="1" source="101" target="98" edge="1">
          <mxGeometry width="50" height="50" relative="1" as="geometry">
            <mxPoint x="-17.65000000000009" y="3286.7" as="sourcePoint" />
            <mxPoint x="88.01369863013679" y="2800" as="targetPoint" />
          </mxGeometry>
        </mxCell>
        <UserObject label="4. Network filter chain processing" id="103">
          <mxCell style="shape=note;strokeWidth=2;fontSize=12;size=20;whiteSpace=wrap;html=1;fillColor=#f8cecc;strokeColor=#b85450;align=left;fontStyle=0;shadow=1;sketch=0;" parent="1" vertex="1">
            <mxGeometry x="337.31" y="2600" width="260" height="60" as="geometry" />
          </mxCell>
        </UserObject>
        <mxCell id="104" value="" style="endArrow=none;dashed=1;html=1;dashPattern=1 3;strokeWidth=2;rounded=0;fontSize=12;fillColor=#e1d5e7;strokeColor=#9673a6;" parent="1" source="103" target="56" edge="1">
          <mxGeometry width="50" height="50" relative="1" as="geometry">
            <mxPoint x="602.3499999999999" y="2848.74" as="sourcePoint" />
            <mxPoint x="755.907090854008" y="2402.960648794132" as="targetPoint" />
          </mxGeometry>
        </mxCell>
        <mxCell id="105" value="" style="endArrow=none;dashed=1;html=1;dashPattern=1 3;strokeWidth=2;rounded=0;fontSize=12;fillColor=#e1d5e7;strokeColor=#9673a6;" parent="1" source="103" target="55" edge="1">
          <mxGeometry width="50" height="50" relative="1" as="geometry">
            <mxPoint x="347.3100000000004" y="2636.024881620101" as="sourcePoint" />
            <mxPoint x="75" y="2627.6982317275606" as="targetPoint" />
          </mxGeometry>
        </mxCell>
        <UserObject label="5. HTTP/2 codec decoding" id="106">
          <mxCell style="shape=note;strokeWidth=2;fontSize=12;size=20;whiteSpace=wrap;html=1;fillColor=#f8cecc;strokeColor=#b85450;align=left;fontStyle=0;shadow=1;sketch=0;" parent="1" vertex="1">
            <mxGeometry x="-820" y="2320" width="260" height="60" as="geometry" />
          </mxCell>
        </UserObject>
        <mxCell id="107" value="" style="endArrow=none;dashed=1;html=1;dashPattern=1 3;strokeWidth=2;rounded=0;fontSize=12;fillColor=#e1d5e7;strokeColor=#9673a6;" parent="1" source="106" target="108" edge="1">
          <mxGeometry width="50" height="50" relative="1" as="geometry">
            <mxPoint x="-1187.65" y="3355.7799999999997" as="sourcePoint" />
            <mxPoint x="-1034.092909145992" y="2910.000648794132" as="targetPoint" />
          </mxGeometry>
        </mxCell>
        <mxCell id="108" value="HTTP/2 codec&lt;br&gt;(nghttp2)" style="ellipse;whiteSpace=wrap;html=1;aspect=fixed;rounded=0;shadow=1;fillColor=default;" parent="1" vertex="1">
          <mxGeometry x="-820" y="2632.5" width="80" height="80" as="geometry" />
        </mxCell>
        <mxCell id="109" value="" style="endArrow=classic;html=1;rounded=0;fontSize=12;dashed=1;dashPattern=1 2;startArrow=none;entryX=1;entryY=0.5;entryDx=0;entryDy=0;" parent="1" source="52" target="43" edge="1">
          <mxGeometry width="50" height="50" relative="1" as="geometry">
            <mxPoint x="-620" y="2708.486470394487" as="sourcePoint" />
            <mxPoint x="-888.1047916666666" y="2790" as="targetPoint" />
          </mxGeometry>
        </mxCell>
        <UserObject label="6. HTTP filter chain processing" id="110">
          <mxCell style="shape=note;strokeWidth=2;fontSize=12;size=20;whiteSpace=wrap;html=1;fillColor=#f8cecc;strokeColor=#b85450;align=left;fontStyle=0;shadow=1;sketch=0;" parent="1" vertex="1">
            <mxGeometry x="-1250" y="2146.02" width="260" height="60" as="geometry" />
          </mxCell>
        </UserObject>
        <mxCell id="111" value="" style="endArrow=none;dashed=1;html=1;dashPattern=1 3;strokeWidth=2;rounded=0;fontSize=12;fillColor=#e1d5e7;strokeColor=#9673a6;" parent="1" source="110" target="44" edge="1">
          <mxGeometry width="50" height="50" relative="1" as="geometry">
            <mxPoint x="-1617.65" y="3181.7999999999997" as="sourcePoint" />
            <mxPoint x="-1199.2325546113561" y="2459.996473165074" as="targetPoint" />
          </mxGeometry>
        </mxCell>
        <mxCell id="112" value="cluster selected" style="endArrow=classic;html=1;rounded=0;fontSize=12;jumpStyle=arc;edgeStyle=orthogonalEdgeStyle;" parent="1" source="46" target="87" edge="1">
          <mxGeometry width="50" height="50" relative="1" as="geometry">
            <mxPoint x="180" y="1650" as="sourcePoint" />
            <mxPoint x="230" y="1600" as="targetPoint" />
            <Array as="points">
              <mxPoint x="-1888" y="2664" />
              <mxPoint x="-1888" y="1171" />
              <mxPoint x="380" y="1171" />
            </Array>
          </mxGeometry>
        </mxCell>
        <mxCell id="113" value="" style="endArrow=classic;html=1;rounded=0;fontSize=12;dashed=1;dashPattern=1 2;startArrow=none;" parent="1" source="50" target="46" edge="1">
          <mxGeometry width="50" height="50" relative="1" as="geometry">
            <mxPoint x="-803.9199321602027" y="2703.699957600128" as="sourcePoint" />
            <mxPoint x="-942.7678571428573" y="2790" as="targetPoint" />
          </mxGeometry>
        </mxCell>
        <mxCell id="114" value="load balancing&lt;br&gt;-&lt;br&gt;select endpoint(host)" style="ellipse;whiteSpace=wrap;html=1;aspect=fixed;rounded=0;shadow=1;fillColor=default;" parent="1" vertex="1">
          <mxGeometry x="327.5" y="440" width="94.99" height="94.99" as="geometry" />
        </mxCell>
        <mxCell id="115" value="" style="endArrow=classic;html=1;rounded=0;fontSize=12;" parent="1" source="87" target="114" edge="1">
          <mxGeometry width="50" height="50" relative="1" as="geometry">
            <mxPoint x="-800" y="934" as="sourcePoint" />
            <mxPoint x="-1744.6740963855427" y="564" as="targetPoint" />
          </mxGeometry>
        </mxCell>
        <UserObject label="&lt;div&gt;7. Load balancing&lt;br&gt;&lt;/div&gt;" id="116">
          <mxCell style="shape=note;strokeWidth=2;fontSize=12;size=20;whiteSpace=wrap;html=1;fillColor=#f8cecc;strokeColor=#b85450;align=left;fontStyle=0;shadow=1;sketch=0;" parent="1" vertex="1">
            <mxGeometry x="-70" y="410" width="240" height="70" as="geometry" />
          </mxCell>
        </UserObject>
        <mxCell id="117" value="" style="endArrow=none;dashed=1;html=1;dashPattern=1 3;strokeWidth=2;rounded=0;fontSize=12;fillColor=#e1d5e7;strokeColor=#9673a6;" parent="1" source="116" target="87" edge="1">
          <mxGeometry width="50" height="50" relative="1" as="geometry">
            <mxPoint x="100" y="589" as="sourcePoint" />
            <mxPoint x="-770" y="460.59574468085157" as="targetPoint" />
          </mxGeometry>
        </mxCell>
        <mxCell id="118" value="" style="endArrow=classic;html=1;rounded=0;fontSize=12;startArrow=none;" parent="1" source="122" target="64" edge="1">
          <mxGeometry width="50" height="50" relative="1" as="geometry">
            <mxPoint x="1654.9899999999998" y="263.64414371717794" as="sourcePoint" />
            <mxPoint x="474.94570276269314" y="207.5119715069386" as="targetPoint" />
          </mxGeometry>
        </mxCell>
        <mxCell id="119" value="" style="endArrow=classic;html=1;rounded=0;fontSize=12;dashed=1;dashPattern=1 2;startArrow=none;entryX=1;entryY=0.5;entryDx=0;entryDy=0;" parent="1" source="43" target="108" edge="1">
          <mxGeometry width="50" height="50" relative="1" as="geometry">
            <mxPoint x="-620.0000000000005" y="2701.748715426749" as="sourcePoint" />
            <mxPoint x="-664.9999999999995" y="2700.0317115772687" as="targetPoint" />
          </mxGeometry>
        </mxCell>
        <mxCell id="122" value="select/create connection from&lt;br&gt;connection pool" style="ellipse;whiteSpace=wrap;html=1;aspect=fixed;rounded=0;shadow=1;fillColor=default;" parent="1" vertex="1">
          <mxGeometry x="324.99" y="260" width="100" height="100" as="geometry" />
        </mxCell>
        <mxCell id="123" value="" style="endArrow=none;html=1;rounded=0;fontSize=12;" parent="1" source="114" target="122" edge="1">
          <mxGeometry width="50" height="50" relative="1" as="geometry">
            <mxPoint x="374.9899999999998" y="440" as="sourcePoint" />
            <mxPoint x="374.99440000000004" y="150" as="targetPoint" />
          </mxGeometry>
        </mxCell>
        <object label="&lt;font style=&quot;font-size: 30px&quot;&gt;%page%&lt;/font&gt;" placeholders="1" a="b" id="125">
          <mxCell style="text;html=1;strokeColor=none;fillColor=#FFCCFF;align=center;verticalAlign=middle;whiteSpace=wrap;rounded=1;glass=0;sketch=1;shadow=0;fontStyle=2;fontSize=16;" parent="1" vertex="1">
            <mxGeometry x="-425" y="4170" width="790" height="120" as="geometry" />
          </mxCell>
        </object>
      </root>
    </mxGraphModel>
  </diagram>
</mxfile>
